<svg width="24" height="24" viewBox="0 0 24 24" fill="none" xmlns="http://www.w3.org/2000/svg">
<path fill-rule="evenodd" clip-rule="evenodd" d="M14.25 2H8C5.23858 2 3 4.23858 3 7V17C3 19.7614 5.23858 22 8 22H16C18.7614 22 21 19.7614 21 17V8.75H18C15.9289 8.75 14.25 7.07107 14.25 5V2ZM15.75 5V2.81066L20.1893 7.25H18C16.7574 7.25 15.75 6.24264 15.75 5ZM14.624 12.416L12.728 15.26C12.3817 15.7795 11.6183 15.7795 11.272 15.26L9.37596 12.416C9.1462 12.0714 9.23933 11.6057 9.58397 11.376C9.92862 11.1462 10.3943 11.2393 10.624 11.584L11.25 12.5229V9C11.25 8.58579 11.5858 8.25 12 8.25C12.4142 8.25 12.75 8.58579 12.75 9V12.5229L13.376 11.584C13.6057 11.2393 14.0714 11.1462 14.416 11.376C14.7607 11.6057 14.8538 12.0714 14.624 12.416Z" fill="black"/>
</svg>
